<svg id="Capa_1" enable-background="new 0 0 512 512" height="512" viewBox="0 0 512 512" width="512" xmlns="http://www.w3.org/2000/svg"><path d="m193.427 364.621-74.677 9.883-63.149-9.883c-2.725 0-4.933-2.209-4.933-4.933 0-28.609 23.192-51.801 51.801-51.801h90.958z" fill="#e5554e"/><path d="m100.84 323.064c-9.37 9.37-15.17 22.32-15.17 36.62 0 2.73 2.21 4.94 4.93 4.94h-35c-2.72 0-4.93-2.21-4.93-4.94 0-14.3 5.8-27.25 15.17-36.62 9.38-9.38 22.32-15.18 36.63-15.18h35c-14.31 0-27.25 5.8-36.63 15.18z" fill="#dd3c3c"/><path d="m150.259 421.356h-137.826c-2.725 0-4.933-2.209-4.933-4.933 0-28.609 23.192-51.801 51.801-51.801h90.958z" fill="#fed22b"/><path d="m57.67 379.794c-9.37 9.37-15.17 22.33-15.17 36.63 0 2.72 2.21 4.93 4.93 4.93h-35c-2.72 0-4.93-2.21-4.93-4.93 0-14.3 5.8-27.26 15.17-36.63s22.33-15.17 36.63-15.17h35c-14.3 0-27.26 5.8-36.63 15.17z" fill="#fdc202"/><path d="m286.007 420.749h-19.595c-13.696 0-24.799-11.103-24.799-24.799v-299.909c0-48.621 39.415-88.037 88.037-88.037 48.621 0 88.037 39.415 88.037 88.037v193.028c0 72.725-58.955 131.68-131.68 131.68z" fill="#e5554e"/><path d="m334.1 49.715c-32.165 0-58.24 26.075-58.24 58.24 0 32.165 26.075 58.241 58.24 58.241h59.167v-116.481z" fill="#f6f1f1"/><path d="m287.33 181.854c-.036.009-.072.019-.109.028-5.367 1.384-10.611-2.592-10.611-8.134v-77.704c0-42.63 30.3-78.18 70.54-86.3-5.571-1.124-11.346-1.723-17.249-1.74-48.562-.136-88.291 40.533-88.291 89.096v106.385 192.47c0 5.7 1.92 10.95 5.16 15.13 4.53 5.88 11.64 9.67 19.64 9.67h19.6c3.63 0 7.23-.15 10.78-.43-11.48-2.17-20.18-12.26-20.18-24.37v-4.03c24.74-21.71 40.34-53.56 40.34-89.02v-98.15c0-15.481-14.62-26.751-29.62-22.901z" fill="#dd3c3c"/><path d="m474.914 114.809h-119.17v27.204c0 13.414 10.875 24.289 24.289 24.289h58.836c24.173 0 43.769-19.596 43.769-43.769 0-4.266-3.458-7.724-7.724-7.724z" fill="#fdc202"/><path d="m495.596 139.394c3.894 2.375 8.814-.769 8.305-5.302-5.332-47.475-45.613-84.378-94.513-84.378h-29.355c-13.414 0-24.289 10.875-24.289 24.289v43.769h69.934c22.549 0 44.662 6.213 63.912 17.957z" fill="#fed22b"/><path d="m327.92 149.134c10.54 10.54 25.1 17.06 41.18 17.06h-35c-16.08 0-30.64-6.52-41.18-17.06-10.54-10.53-17.06-25.09-17.06-41.18 0-32.16 26.07-58.24 58.24-58.24h35c-32.17 0-58.24 26.08-58.24 58.24 0 16.09 6.52 30.65 17.06 41.18z" fill="#eadfda"/><path d="m279.95 204.754v98.15c0 65.307-52.933 118.41-118.41 118.41h-36.82v-63.32c0-75.533 54.002-157.77 125.61-176.14 15-3.85 29.62 7.42 29.62 22.9z" fill="#c8ea73"/><path d="m271.19 186.384c-64.46 24.83-111.47 101.14-111.47 171.61v63.32h-35v-63.32c0-75.53 54-157.77 125.61-176.14 7.69-1.97 15.28.03 20.86 4.53z" fill="#9bd069"/><path d="m279.95 252.114v50.79c0 7.33-.67 14.51-1.95 21.47-1.005.147-147.902 22.054-152.94 23.09 1.64-25.35 9.1-51.07 21.03-74.55 1.001-.157 122.783-19.193 133.86-20.8z" fill="#fed22b"/><path d="m278 324.374c-10.09 55.14-58.39 96.94-116.46 96.94h-36.82v-63.32c0-3.5.12-7.01.34-10.53 5.018-1.032 151.938-22.943 152.94-23.09z" fill="#9dc6fb"/><path d="m184.23 266.954c-12.84 23.4-21.22 49.31-23.71 75.03-19.47 2.95-33.94 5.17-35.46 5.48 0-.04.01-.09.01-.13.392-5.828 1.06-11.627 2.11-17.82-.01-.01 0-.02 0-.03 1.244-7.327 3.046-14.936 4.9-21.23 0-1.579 8.384-25.495 14.01-35.34.37-.06 16.83-2.63 38.14-5.96z" fill="#fdc202"/><path d="m184.23 266.954c-12.84 23.4-21.22 49.31-23.71 75.03-19.47 2.95-33.94 5.17-35.46 5.48 0-.04.01-.09.01-.13.34-5.057.891-10.626 2.11-17.82-.01-.01 0-.02 0-.03 1.244-7.327 3.046-14.936 4.9-21.23 0-1.579 8.384-25.495 14.01-35.34.37-.06 16.83-2.63 38.14-5.96z" fill="#fdc202"/><path d="m160.52 341.994c-.53 5.35-.8 10.69-.8 16v63.32h-35c0-68.492-.108-66.556.34-73.85 1.52-.31 15.98-2.53 35.46-5.47z" fill="#84bbf7"/><path d="m160.52 341.994c-.53 5.35-.8 10.69-.8 16v63.32h-35c0-68.492-.108-66.556.34-73.85 1.52-.31 15.98-2.53 35.46-5.47z" fill="#84bbf7"/><ellipse cx="318.685" cy="93.802" rx="14.804" ry="14.804" transform="matrix(.995 -.099 .099 .995 -7.692 31.859)"/><path d="m408.568 42.214c-28.822-42.25-84.743-53.597-127.284-28.578-3.57 2.1-4.762 6.696-2.663 10.267 2.1 3.571 6.697 4.762 10.267 2.663 31.904-18.763 74.245-13.738 100.658 15.648-6.607 0-49.753 0-55.448 0-36.25 0-65.741 29.491-65.741 65.741s29.491 65.741 65.741 65.741c8.188 0 67.897.108 76.083.108v115.271c0 68.474-55.707 124.181-124.181 124.181h-19.59c-9.54 0-17.3-7.761-17.3-17.3v-2.618c24.899-24.074 38.339-56.945 38.339-90.436v-98.143c0-17.185-13.977-31.166-31.156-31.166-2.404 0-4.815.295-7.183.85v-78.399c0-18.959 6.716-37.374 18.911-51.853 2.668-3.168 2.263-7.899-.905-10.568s-7.9-2.264-10.568.905c-14.47 17.179-22.438 39.025-22.438 61.516v83.115c-30.255 11.495-58.107 34.142-79.58 65.016-12.03 17.297-21.451 36.497-27.819 56.21h-24.241c-32.387 0-59.109 26.074-59.292 58.963-24.467 6.869-43.178 29.438-43.178 57.077 0 6.854 5.576 12.43 12.43 12.43 141.577 0 144.71-.04 144.71-.04 4.142 0 7.5-3.358 7.5-7.5s-3.358-7.5-7.5-7.5h-24.92c0-7.957-.06-55.485.063-60.005l135.796-20.369c-11.115 38.301-42.525 69.027-82.745 77.816-4.047.884-6.61 4.882-5.726 8.928s4.884 6.61 8.928 5.726c16.913-3.696 32.871-10.942 46.832-21.055 3.876 13.494 16.32 23.399 31.043 23.399h7.172v68.25h-13.941c-4.142 0-7.5 3.358-7.5 7.5s3.358 7.5 7.5 7.5h42.883c4.142 0 7.5-3.358 7.5-7.5s-3.358-7.5-7.5-7.5h-13.941v-68.283c22.896-.419 44.46-6.389 63.396-16.627v84.91h-13.941c-4.142 0-7.5 3.358-7.5 7.5s3.358 7.5 7.5 7.5h42.883c4.142 0 7.5-3.358 7.5-7.5s-3.358-7.5-7.5-7.5h-13.941v-94.299c35.217-25.28 58.203-66.57 58.203-113.132v-115.27h13.69c20.859 0 39.388-12.742 47.256-31.402l14.466 8.826c4.977 3.037 11.406-.536 11.406-6.402-.002-55.322-44.461-102.612-103.434-102.612zm-156.376 146.901c1.356-.348 2.736-.524 4.102-.524 8.909 0 16.156 7.252 16.156 16.166v40.876c-.092.011-.184.014-.277.029l-111.846 17.438c22.213-36.285 55.456-64.641 91.865-73.985zm-193.949 168.01c1.318-23.258 20.574-41.74 44.228-41.74h20.013c-3.376 13.995-5.18 28.068-5.253 41.74-6.696 0-52.365 0-58.988 0zm1.057 15h57.92v41.73h-102.147c1.313-23.095 20.417-41.73 44.227-41.73zm74.144-33.657c2.489-20.224 8.703-40.227 17.768-58.765l121.238-18.902c0 45.59.298 47.329-1.025 56.97zm149.914-230.514c0-27.979 22.762-50.741 50.741-50.741h18.958c-3.046 4.876-4.813 10.629-4.813 16.79 0 42.604-.003 35.901-.003 68.011 0 6.115 1.739 11.829 4.744 16.682h-18.886c-27.978-.001-50.741-22.763-50.741-50.742zm142.32 2.318h-.688c-4.142 0-7.5 3.358-7.5 7.5s3.358 7.5 7.5 7.5h.688c16.302 0 32.346 3.469 47.118 10.091-5.249 13.865-18.711 23.441-33.925 23.441h-58.84c-9.258 0-16.791-7.532-16.791-16.79v-16.742h31.749c4.142 0 7.5-3.358 7.5-7.5s-3.358-7.5-7.5-7.5h-31.746v-36.269c0-9.258 7.532-16.79 16.789-16.79h29.355c43.53 0 79.746 31.907 86.486 73.564-21.599-13.177-44.086-20.505-70.195-20.505z"/></svg>