<svg id="icons" enable-background="new 0 0 64 64" height="512" viewBox="0 0 64 64" width="512" xmlns="http://www.w3.org/2000/svg"><path d="m33 57.995h30v3h-30z" fill="#94c1ff"/><path d="m33 54.995h30v3h-30z" fill="#94c1ff"/><path d="m63 51.995h-3-24c0-1.66-1.34-3-3-3v-12c1.65 0 2.99-1.33 3-2.99h24c.01 1.66 1.34 2.99 2.99 2.99zm-11.01-9c0-2.21-1.79-4-3.99-4-2.21 0-4 1.79-4 4s1.79 4 4 4c2.2 0 3.99-1.79 3.99-4z" fill="#d7e9ff"/><path d="m63 54.995h-30v-3h3 24 3z" fill="#94c1ff"/><path d="m31.99 5.005v1.01h-30.99v-1.01c0-1.1.89-2 2-2h26.99c1.11 0 2 .9 2 2z" fill="#d7e9ff"/><path d="m1 6.015h30.99v23.99h-30.99z" fill="#94c1ff"/><path d="m62.99 34.005v2.99c-1.65 0-2.98-1.33-2.99-2.99z" fill="#94c1ff"/><path d="m62.99 51.99h-2.99c0-1.65 1.33-2.98 2.99-2.99z" fill="#94c1ff"/><path d="m33 34.005h3c-.01 1.66-1.35 2.99-3 2.99z" fill="#94c1ff"/><path d="m33 48.995c1.66 0 3 1.34 3 3h-3z" fill="#94c1ff"/><path d="m48 38.995c2.2 0 3.99 1.79 3.99 4s-1.79 4-3.99 4c-2.21 0-4-1.79-4-4s1.79-4 4-4z" fill="#94c1ff"/><g fill="#116fff"><path d="m31.994 30.998h-30.994c-.553 0-1-.447-1-1v-23.992c0-.553.447-1 1-1h30.994c.553 0 1 .447 1 1v23.992c0 .553-.447 1-1 1zm-29.994-2h28.994v-21.992h-28.994z"/><path d="m1 6.002c-.553 0-1-.447-1-1 0-1.653 1.345-2.998 2.998-2.998.553 0 1 .447 1 1s-.447 1-1 1c-.551 0-.998.447-.998.998 0 .553-.447 1-1 1z"/><path d="m31.994 6.002c-.553 0-1-.447-1-1 0-.552-.448-1-1-1-.553 0-1-.447-1-1s.447-1 1-1c1.654 0 3 1.346 3 3 0 .553-.447 1-1 1z"/><path d="m29.994 4.004h-26.996c-.553 0-1-.447-1-1s.447-1 1-1h26.996c.553 0 1 .447 1 1s-.447 1-1 1z"/><path d="m31.994 7.006c-.553 0-1-.447-1-1v-1.002c0-.553.447-1 1-1s1 .447 1 1v1.002c0 .553-.447 1-1 1z"/><path d="m1 7.006c-.553 0-1-.447-1-1v-1.002c0-.553.447-1 1-1s1 .447 1 1v1.002c0 .553-.447 1-1 1z"/><path d="m14.992 11.006h-9.994c-.553 0-1-.447-1-1s.447-1 1-1h9.994c.553 0 1 .447 1 1s-.447 1-1 1z"/><path d="m16.992 15.006h-9.994c-.553 0-1-.447-1-1s.447-1 1-1h9.994c.553 0 1 .447 1 1s-.447 1-1 1z"/><path d="m14.998 23.006h-8c-.553 0-1-.447-1-1s.447-1 1-1h8c.553 0 1 .447 1 1s-.447 1-1 1z"/><path d="m21.99 15.006h-.998c-.553 0-1-.447-1-1s.447-1 1-1h.998c.553 0 1 .447 1 1s-.447 1-1 1z"/><path d="m9.998 26.994h-5c-.553 0-1-.447-1-1s.447-1 1-1h5c.553 0 1 .447 1 1s-.447 1-1 1z"/><path d="m20.99 19.002h-11.992c-.553 0-1-.447-1-1s.447-1 1-1h11.992c.553 0 1 .447 1 1s-.447 1-1 1z"/><path d="m27.99 19.002h-3c-.553 0-1-.447-1-1s.447-1 1-1h3c.553 0 1 .447 1 1s-.447 1-1 1z"/><path d="m63.02 52.99c-.005 0-.013.001-.02 0h-30.002c-.553 0-1-.447-1-1v-17.994c0-.553.447-1 1-1h29.996c.552 0 1 .447 1 1l.006 17.794c.013.064.02.132.02.2 0 .553-.448 1-1 1zm-29.022-2h28.002l-.006-15.994h-27.996z"/><path d="m47.996 47.99c-2.757 0-5-2.243-5-5s2.243-5 5-5c2.756 0 4.998 2.243 4.998 5s-2.242 5-4.998 5zm0-8c-1.654 0-3 1.346-3 3s1.346 3 3 3c1.653 0 2.998-1.346 2.998-3s-1.345-3-2.998-3z"/><path d="m62.994 37.988c-2.202 0-3.994-1.793-3.994-3.996 0-.553.447-1 1-1s1 .447 1 1c0 1.101.895 1.996 1.994 1.996.553 0 1 .447 1 1s-.447 1-1 1z"/><path d="m60 52.99c-.553 0-1-.447-1-1 0-2.203 1.792-3.996 3.994-3.996.553 0 1 .447 1 1s-.447 1-1 1c-1.1 0-1.994.896-1.994 1.996 0 .553-.447 1-1 1z"/><path d="m35.996 52.99c-.553 0-1-.447-1-1 0-1.101-.896-1.996-1.996-1.996-.553 0-1-.447-1-1s.447-1 1-1c2.203 0 3.996 1.793 3.996 3.996 0 .553-.447 1-1 1z"/><path d="m32.996 37.992c-.553 0-1-.447-1-1s.447-1 1-1c1.104 0 2.002-.897 2.002-2 0-.553.447-1 1-1s1 .447 1 1c0 2.206-1.795 4-4.002 4z"/><path d="m32.998 61.998c-.553 0-1-.447-1-1v-9.008c0-.553.447-1 1-1s1 .447 1 1v9.008c0 .553-.447 1-1 1z"/><path d="m63 55.992h-30.002c-.553 0-1-.447-1-1s.447-1 1-1h30.002c.553 0 1 .447 1 1s-.447 1-1 1z"/><path d="m63 58.992h-30.002c-.553 0-1-.447-1-1s.447-1 1-1h30.002c.553 0 1 .447 1 1s-.447 1-1 1z"/><path d="m63 61.992h-30.002c-.553 0-1-.447-1-1s.447-1 1-1h30.002c.553 0 1 .447 1 1s-.447 1-1 1z"/><path d="m63 61.998c-.553 0-1-.447-1-1v-9.008c0-.553.447-1 1-1s1 .447 1 1v9.008c0 .553-.447 1-1 1z"/><path d="m47.998 31.998c-.553 0-1-.447-1-1v-14.998c0-.553.447-1 1-1s1 .447 1 1v14.998c0 .553-.447 1-1 1z"/><path d="m47.998 17h-12.998c-.553 0-1-.447-1-1s.447-1 1-1h12.998c.553 0 1 .447 1 1s-.447 1-1 1z"/><path d="m37 19.002c-.256 0-.512-.098-.707-.293l-2-2.002c-.391-.391-.391-1.024 0-1.414.391-.391 1.023-.391 1.414 0l2 2.002c.391.391.391 1.024 0 1.414-.195.195-.451.293-.707.293z"/><path d="m35 17c-.256 0-.512-.098-.707-.293-.391-.391-.391-1.024 0-1.414l2-1.998c.391-.391 1.023-.391 1.414 0s.391 1.024 0 1.414l-2 1.998c-.195.195-.451.293-.707.293z"/><path d="m16.994 49.002c-.553 0-1-.447-1-1v-14.998c0-.553.447-1 1-1s1 .447 1 1v14.998c0 .553-.447 1-1 1z"/><path d="m29.992 49.002h-12.998c-.553 0-1-.447-1-1s.447-1 1-1h12.998c.553 0 1 .447 1 1s-.447 1-1 1z"/><path d="m29.992 49.002c-.256 0-.512-.098-.707-.293l-2-2c-.391-.391-.391-1.023 0-1.414s1.023-.391 1.414 0l2 2c.391.391.391 1.023 0 1.414-.195.195-.451.293-.707.293z"/><path d="m27.992 51.002c-.256 0-.512-.098-.707-.293-.391-.391-.391-1.023 0-1.414l2-2c.391-.391 1.023-.391 1.414 0s.391 1.023 0 1.414l-2 2c-.195.195-.451.293-.707.293z"/></g></svg>